<svg width="14" height="15" viewBox="0 0 14 15" fill="none" xmlns="http://www.w3.org/2000/svg">
<path d="M13.7812 7.75C13.7812 4.00391 10.7461 0.96875 7 0.96875C3.25391 0.96875 0.21875 4.00391 0.21875 7.75C0.21875 11.4961 3.25391 14.5312 7 14.5312C10.7461 14.5312 13.7812 11.4961 13.7812 7.75ZM9.84375 6.98438C10.0898 6.71094 10.5273 6.71094 10.7734 6.95703L11.0742 7.25781C11.3477 7.50391 11.3477 7.94141 11.0742 8.1875L7.4375 11.8242C7.19141 12.0703 6.78125 12.0703 6.53516 11.8242L2.89844 8.1875C2.65234 7.94141 2.65234 7.53125 2.89844 7.25781L3.19922 6.95703C3.44531 6.71094 3.88281 6.71094 4.12891 6.98438L6.125 9.03516V4.03125C6.125 3.67578 6.39844 3.375 6.78125 3.375H7.21875C7.57422 3.375 7.875 3.67578 7.875 4.03125V9.03516L9.84375 6.98438Z" fill="#F93154"/>
</svg>
