<svg width="14" height="15" viewBox="0 0 14 15" fill="none" xmlns="http://www.w3.org/2000/svg">
<path d="M0.21875 7.75C0.21875 11.4961 3.25391 14.5312 7 14.5312C10.7461 14.5312 13.7812 11.4961 13.7812 7.75C13.7812 4.00391 10.7461 0.96875 7 0.96875C3.25391 0.96875 0.21875 4.00391 0.21875 7.75ZM4.12891 8.54297C3.88281 8.81641 3.44531 8.81641 3.19922 8.57031L2.89844 8.26953C2.625 7.99609 2.625 7.58594 2.89844 7.33984L6.53516 3.70312C6.78125 3.45703 7.19141 3.45703 7.46484 3.70312L11.0742 7.33984C11.3477 7.58594 11.3477 7.99609 11.0742 8.26953L10.7734 8.57031C10.5273 8.81641 10.0898 8.81641 9.84375 8.54297L7.875 6.49219V11.4688C7.875 11.8516 7.57422 12.125 7.21875 12.125H6.78125C6.39844 12.125 6.125 11.8516 6.125 11.4688V6.49219L4.12891 8.54297Z" fill="#00B74A"/>
</svg>
